<?xml version="1.0" encoding="UTF-8"?>
<!-- Generator: Adobe Illustrator 19.1.0, SVG Export Plug-In . SVG Version: 6.00 Build 0)  -->
<svg version="1.1" id="Layer_1" xmlns="http://www.w3.org/2000/svg" xmlns:xlink="http://www.w3.org/1999/xlink" x="0px" y="0px" viewBox="180 -120 960 560" style="enable-background:new 180 -120 960 560;" xml:space="preserve">
<style type="text/css">
	.st0{fill:none;}
	.st1{fill:url(#SVGID_1_);}
	.st2{fill:#0076C6;}
	.st3{fill:none;stroke:#000000;stroke-width:9;}
	.st4{fill:#FB2127;stroke:#000000;stroke-width:9;}
</style>
<pattern x="180" y="440" width="28.9" height="28.9" patternUnits="userSpaceOnUse" id="New_Pattern" viewBox="5.2 -34.1 28.9 28.9" style="overflow:visible;">
	<g>
		<polygon class="st0" points="5.2,-34.1 34.1,-34.1 34.1,-5.2 5.2,-5.2   "/>
		<path d="M32.1-5.2c0-2.9-2.3-5.2-5.2-5.2s-5.2,2.3-5.2,5.2S24,0,26.9,0S32.1-2.3,32.1-5.2z"/>
		<path d="M17.7-5.2c0-2.9-2.3-5.2-5.2-5.2S7.2-8.1,7.2-5.2S9.6,0,12.5,0S17.7-2.3,17.7-5.2z"/>
		<path d="M39.4-19.7c0-2.9-2.3-5.2-5.2-5.2s-5.2,2.3-5.2,5.2s2.3,5.2,5.2,5.2S39.4-16.8,39.4-19.7z"/>
		<path d="M24.9-19.7c0-2.9-2.3-5.2-5.2-5.2s-5.2,2.3-5.2,5.2s2.3,5.2,5.2,5.2S24.9-16.8,24.9-19.7z"/>
		<path d="M10.5-19.7c0-2.9-2.3-5.2-5.2-5.2S0-22.6,0-19.7s2.3,5.2,5.2,5.2S10.5-16.8,10.5-19.7z"/>
		<path d="M32.1-34.1c0-2.9-2.3-5.2-5.2-5.2s-5.2,2.3-5.2,5.2s2.3,5.2,5.2,5.2S32.1-31.3,32.1-34.1z"/>
		<path d="M17.7-34.1c0-2.9-2.3-5.2-5.2-5.2S7.2-37,7.2-34.1s2.3,5.2,5.2,5.2S17.7-31.3,17.7-34.1z"/>
	</g>
</pattern>
<pattern id="SVGID_1_" xlink:href="#New_Pattern" patternTransform="matrix(1 0 0 1 305 17071)">
</pattern>
<path class="st1" d="M382.4-68.3l109.7,58l50.5-54.3l46.8,47.3l82.1-91.5L739.2,4.8l83.3-39.2l130.1-32.1l-42.2,84.4l42.6,63  l124.4,96.7l-132,27.8l-24.9,106.1l-109.9-16.9l-28,130.6L712,309.6l-92.7,98L551.6,316l-95.4,83.9l16.5-148.2l-124.7,28l16.5-50.9  L242,190.1l92.8-68.2L290,53.3l49.6-29.2l45.9-4.5l-10.1-74.3l-2.3-4.7C361.4-87.2,376.6-71.4,382.4-68.3z"/>
<polygon class="st2" points="305.5,11.5 466.2,36.7 494.5,-30.5 548.1,0 593.2,-112.4 683.6,-25.2 744.5,-88.3 765.5,-31.5   895.7,-108.2 889.4,-18.9 1023.9,34.6 917.8,101.9 973.5,273.1 836.9,263.6 839,361.3 745.5,273.1 693,394.9 609,328.7 550.2,438   522.9,292 423.1,357.1 423.1,303.5 306.5,304.6 367.4,211.1 309.7,159.6 344.3,116.6 302.3,59.8 337,54.6 "/>
<g>
	<path d="M462.2,113c-12.4,4.7-27.2,10.3-44.2,16.9l-43.8,16.8c0-18.2-5-27.4-15.1-27.4c-14.4,0-28.7,8.2-43.1,24.5   c-10.1,12-14.4,23.7-12.8,34.9c1.2,7.4,8.5,11.1,22.1,11.1c7.4,0,17.1-1.2,29.1-3.5c16.7-3.5,31.4-5.2,44.2-5.2   c32.6,0,51.6,11.3,57.1,33.8c1.5,7,2.3,14.4,2.3,22.1c0,24.8-9.3,51.6-27.9,80.3c-24.1,37.6-57.8,69.3-101.3,94.9   c-22.9,13.6-45.4,20.4-67.5,20.4c-20.2,0-40-5.6-59.4-16.9c9.7-23.3,25.2-57.6,46.6-103c12.4,8.5,25.6,12.8,39.6,12.8   c6.2,0,12.6-1,19.2-2.9c12-3.1,23.5-7.6,34.3-13.4c15.5-8.5,23.3-17.3,23.3-26.2c0-9.7-8-14.6-23.9-14.6c-10.9,0-26.7,2.2-47.4,6.7   c-20.8,4.5-36.6,6.7-47.4,6.7c-14.4,0-25.4-2.7-33.2-8.2c-15.1-10.1-21.3-25.8-18.6-47.2c5-43.1,32.8-92.9,83.3-149.6   c51.6-58.2,96.1-88.7,133.3-91.4c36.1-2.3,54.1,24.8,54.1,81.5C465.1,80.5,464.1,95.9,462.2,113z"/>
	<path d="M463.6,124.6c15.6-6.4,29-10.1,40.1-10.9c12.5-0.9,22.3,1.7,29.3,7.7c9.7,8.7,15,19.7,16,33c0.4,4.9,0.1,10.1-0.8,15.6   c-3.7,24.9-14.9,47.2-33.8,66.9c-18.8,19.7-40.5,32.1-65.1,37.1c0.1-3.1,0.9-12.3,2.4-27.6l9.8-97.1   C462.9,134.8,463.6,126.6,463.6,124.6z M495.9,156.9c-4.4,27.7-7.4,53.9-9,78.4c7.8-8.5,14.5-18.2,20.3-29.1   c7.1-13.4,10.4-24.6,9.7-33.8C516.1,160.6,509.1,155.4,495.9,156.9z"/>
	<path d="M557.7,118.5l44.3-14.8c-2.1,16.1-3.4,28.8-3.9,38c13.5-15.5,25.7-30.4,36.7-44.5l36.2,17l-45.6,53.5l44.1,103.7l-44.1,32   L593,206.1c-1.5,29.2-2,58-1.5,86.4l-40.1,17.4L557.7,118.5z"/>
	<path d="M652.5,217.4c26.6-67.5,47-136.2,61-206l70.7-11.5L774,108.5L801.8,8.2l68-11.8c-8.1,64.3-12.1,122.3-12.1,174   c0,10.3,0,20.4,0,30.5l-60.4,10.7L808,82l-38.8,143.6l-32.6,4.4l19.5-182.3l-42,161.6L652.5,217.4z"/>
	<path d="M863.9,188.5c6.9-41.1,11.3-80.2,13.1-117.4l44.6-17.4c1.2,31.8,6.4,68.6,15.7,110.4l-30.6,14.2l-1.7-19.5l-9.8,4.1   l-0.4,14L863.9,188.5z M903.1,137.8L898,79h-0.2l-1.9,61.8L903.1,137.8z"/>
	<path d="M960.5,29.8l38-7.7c-0.3,4.5-0.4,11-0.4,19.3c0,19.9,0.7,37.4,2,52.5c0.7,8.6,1.8,15.6,3.3,20.9l14.9-85.6l37.7-7   c-15.2,58.7-25.2,109.5-29.8,152.5l-34.7,9.7c-0.1-0.3-1.1-2.9-2.9-7.7l-11.4-32.5c-1.9-5.3-3-8.6-3.3-10.1   c-3.1,17.3-5.5,34-7.2,50.3l-35.1,10.5L960.5,29.8z"/>
	<path d="M1049.8,178.3c5-1.4,9.6-1.2,13.8,0.5c4.9,1.7,7.7,5.1,8.3,10c0.8,6.7-2,13.2-8.4,19.6c-5,5-10.7,8.4-17.1,10.1   c-5.1,1.4-9.7,1.4-13.7,0c-4.8-1.8-7.5-5.1-8.1-10c-0.8-6.7,1.8-13.3,7.9-19.8C1037.5,183.5,1043.3,180,1049.8,178.3z M1057.5,39.8   l46.5,1.9c-9.3,23.1-16.1,41.2-20.2,54.1c-5.6,17.7-10.2,36.6-13.7,56.8l-30.4,2.5L1057.5,39.8z"/>
</g>
<polygon class="st3" points="304.5,8.5 465.2,33.7 493.5,-33.5 547.1,-3 592.2,-115.4 682.6,-28.2 743.5,-91.3 764.5,-34.5   894.7,-111.2 888.4,-21.9 1022.9,31.6 916.8,98.9 972.5,270.1 835.9,260.6 838,358.3 744.5,270.1 692,391.9 608,325.7 549.2,435   521.9,289 422.1,354.1 422.1,300.5 305.5,301.6 366.4,208.1 308.7,156.6 343.3,113.6 301.3,56.8 336,51.6 "/>
<g>
	<path class="st4" d="M569,136.2c-1-13.3-6.3-24.4-16-33c-7-6.1-16.8-8.6-29.3-7.7c-11.1,0.8-24.5,4.4-40.1,10.9   c0,2-0.7,10.2-2,24.7l-6.4,63.6c-6.1-21.2-24.9-31.8-56.5-31.8c-12.8,0-27.6,1.7-44.2,5.2c-12,2.3-21.7,3.5-29.1,3.5   c-13.6,0-21-3.7-22.1-11.1c-1.6-11.3,2.7-22.9,12.8-34.9c14.4-16.3,28.7-24.5,43.1-24.5c10.1,0,15.1,9.1,15.1,27.4l43.7-16.9   c17.1-6.6,31.8-12.2,44.2-16.9c1.9-17.1,2.9-32.4,2.9-46c0-56.7-18-83.8-54.1-81.5c-37.3,2.7-81.7,33.2-133.3,91.4   c-50.5,56.7-78.2,106.5-83.3,149.6c-2.7,21.3,3.5,37.1,18.6,47.2c7.8,5.4,18.8,8.2,33.2,8.2c10.9,0,26.7-2.2,47.4-6.7   c20.8-4.5,36.6-6.7,47.4-6.7c15.9,0,23.9,4.9,23.9,14.6c0,8.9-7.8,17.7-23.3,26.2c-10.9,5.8-22.3,10.3-34.3,13.4   c-6.6,2-13,2.9-19.2,2.9c-14,0-27.2-4.3-39.6-12.8c-21.3,45.4-36.9,79.8-46.6,103c19.4,11.3,39.2,16.9,59.4,16.9   c22.1,0,44.6-6.8,67.5-20.4c43.5-25.6,77.2-57.2,101.3-94.9c9.8-15.1,17-29.7,21.6-43.7c23.5-5.3,44.4-17.5,62.7-36.5   c18.8-19.7,30.1-42,33.8-66.9C569.1,146.2,569.3,141,569,136.2z M527.2,187.8c-5.8,10.9-12.6,20.6-20.3,29.1   c1.6-24.6,4.6-50.7,9-78.4c13.2-1.5,20.2,3.7,21,15.5C537.6,163.2,534.4,174.4,527.2,187.8z"/>
	<path class="st4" d="M577.7,100.1L622,85.3c-2.1,16.1-3.4,28.8-3.9,38c13.5-15.5,25.7-30.4,36.7-44.5l36.2,17l-45.6,53.5L689.5,253   l-44.1,32L613,187.7c-1.5,29.2-2,58-1.5,86.4l-40,17.6L577.7,100.1z"/>
	<path class="st4" d="M672.5,199c26.6-67.5,47-136.2,61-206l70.7-11.5L794.1,90.1l27.7-100.3l68-11.8c-8.1,64.3-12.1,122.3-12.1,174   c0,10.3,0,20.4,0,30.5l-60.4,10.7L828,63.6l-38.8,143.6l-32.6,4.4l19.5-182.3l-42,161.6L672.5,199z"/>
	<path class="st4" d="M883.9,170.1c6.9-41.1,11.3-80.2,13.1-117.4l44.6-17.4c1.2,31.8,6.4,68.6,15.7,110.4l-30.6,14.2l-1.7-19.5   l-9.8,4.1l-0.4,14L883.9,170.1z M923.1,119.4L918,60.6h-0.2l-1.9,61.8L923.1,119.4z"/>
	<path class="st4" d="M980.6,11.4l38-7.7c-0.3,4.5-0.4,11-0.4,19.3c0,19.9,0.7,37.4,2,52.5c0.7,8.6,1.8,15.6,3.3,20.9l14.8-85.7   l37.7-7c-15.2,58.7-25.2,109.5-29.8,152.5l-34.7,9.7c-0.1-0.3-1.1-2.9-2.9-7.7l-11.3-32.5c-1.9-5.3-3-8.6-3.3-10.1   c-3.1,17.3-5.5,34-7.2,50.3l-35.1,10.5L980.6,11.4z"/>
	<path class="st4" d="M1069.9,159.9c5-1.4,9.6-1.2,13.8,0.5c4.9,1.7,7.7,5.1,8.3,10c0.8,6.7-2,13.2-8.4,19.6   c-5,5-10.7,8.4-17.1,10.1c-5.1,1.4-9.7,1.4-13.7,0c-4.8-1.8-7.5-5.1-8.1-10c-0.8-6.7,1.8-13.3,7.9-19.8   C1057.5,165.1,1063.3,161.6,1069.9,159.9z M1077.5,21.4l46.5,1.9c-9.3,23.1-16.1,41.2-20.2,54.1c-5.6,17.7-10.2,36.6-13.7,56.8   l-30.4,2.5L1077.5,21.4z"/>
</g>
</svg>