<?xml version="1.0" encoding="UTF-8" standalone="no"?>
<!-- Created with Inkscape (http://www.inkscape.org/) -->

<svg
   xmlns:dc="http://purl.org/dc/elements/1.1/"
   xmlns:cc="http://creativecommons.org/ns#"
   xmlns:rdf="http://www.w3.org/1999/02/22-rdf-syntax-ns#"
   xmlns:svg="http://www.w3.org/2000/svg"
   xmlns="http://www.w3.org/2000/svg"
   xmlns:sodipodi="http://sodipodi.sourceforge.net/DTD/sodipodi-0.dtd"
   xmlns:inkscape="http://www.inkscape.org/namespaces/inkscape"
   width="1000"
   height="499"
   id="svg3944"
   version="1.1"
   inkscape:version="0.48.4 r9939"
   sodipodi:docname="Groovy-logo2.svg">
  <defs
     id="defs3946" />
  <sodipodi:namedview
     id="base"
     pagecolor="#ffffff"
     bordercolor="#666666"
     borderopacity="1.0"
     inkscape:pageopacity="0.0"
     inkscape:pageshadow="2"
     inkscape:zoom="1.2316035"
     inkscape:cx="394.28684"
     inkscape:cy="193.91615"
     inkscape:document-units="px"
     inkscape:current-layer="layer1"
     showgrid="false"
     inkscape:window-width="1920"
     inkscape:window-height="1056"
     inkscape:window-x="0"
     inkscape:window-y="24"
     inkscape:window-maximized="1"
     fit-margin-top="0"
     fit-margin-left="0"
     fit-margin-right="0"
     fit-margin-bottom="0" />
  <metadata
     id="metadata3949">
    <rdf:RDF>
      <cc:Work
         rdf:about="">
        <dc:format>image/svg+xml</dc:format>
        <dc:type
           rdf:resource="http://purl.org/dc/dcmitype/StillImage" />
        <dc:title></dc:title>
      </cc:Work>
    </rdf:RDF>
  </metadata>
  <g
     inkscape:label="Ebene 1"
     inkscape:groupmode="layer"
     id="layer1"
     transform="translate(-35.396599,164.8432)">
    <path
       inkscape:connector-curvature="0"
       id="path4019"
       d="m 230.16126,331.75019 c 0,-1.32366 17.64122,-30.58671 39.2027,-65.02897 21.56152,-34.44227 36.90809,-63.43555 34.10356,-64.42946 -2.80453,-0.9939 -12.50856,0.79773 -21.56449,3.98138 -27.27357,9.58814 -32.87774,7.04671 -53.24839,-24.14773 -22.04111,-33.75242 -22.83038,-37.23584 -11.33858,-50.04168 7.50645,-8.36467 7.05502,-10.31454 -5.26391,-22.73779 -7.41089,-7.47367 -13.47435,-15.839051 -13.47435,-18.589746 0,-4.626658 -50.47688,-25.605925 -130.281756,-54.147855 -18.094701,-6.471515 -32.899445,-12.85982 -32.899445,-14.19623 0,-1.33646 38.227632,-1.650348 84.950291,-0.697566 l 84.95031,1.73231 8.29233,-13.189524 c 35.0446,-55.740731 87.96725,-106.088008 111.51474,-106.088008 4.90347,0 14.85636,4.712712 22.11747,10.472674 11.82374,9.379305 13.44765,15.191146 15.55433,55.668537 1.2937,24.8577375 3.9484,46.805521 5.89924,48.772909 1.95083,1.967356 8.13992,-0.614716 13.75356,-5.737993 7.16871,-6.5425711 14.71536,-8.3163381 25.35552,-5.9595883 11.02257,2.4414718 17.30873,0.770264 23.07818,-6.1355519 8.65445,-10.3588716 51.96637,-80.3807688 51.96637,-84.0132928 0,-1.234505 8.57544,-16.026658 19.05659,-32.871445 10.48106,-16.84479 22.55252,-36.26807 26.82539,-43.16283 7.599,-12.26182 8.78964,-10.8107 54.44362,66.356084 47.13758,79.674421 72.50753,109.074687 85.20846,98.744954 8.86358,-7.2088788 55.37791,-7.6179506 68.37833,-0.6013955 7.38901,3.9879451 12.08386,3.9356637 16.16495,-0.1800541 8.46953,-8.541249 28.74688,-7.0536269 34.04728,2.4979253 4.17596,7.5251803 5.24101,7.5251803 11.43395,0 3.75597,-4.5640459 14.88044,-8.29818767 24.72101,-8.29818767 13.90751,0 19.20827,2.91330437 23.80239,13.08170797 l 5.91038,13.081692 91.35909,-3.261734 c 50.24751,-1.794002 91.35912,-2.113737 91.35912,-0.710476 0,1.403164 -37.30796,16.54347 -82.90659,33.645087 -45.5986,17.101551 -83.66327,31.607266 -84.58812,32.234828 -0.92488,0.627561 1.13762,15.592079 4.58334,33.254439 8.96549,45.95661 3.11835,76.58438 -19.42478,101.74817 -10.11282,11.28849 -26.52132,23.23184 -36.46337,26.54079 -9.94205,3.30894 -18.07642,7.20436 -18.07642,8.65643 0,1.4521 10.61161,19.18299 23.5814,39.40196 12.96977,20.21902 21.63417,36.76185 19.25413,36.76185 -3.8846,0 -98.48943,-36.86226 -245.5954,-95.69489 -29.00616,-11.60049 -55.42072,-21.09185 -58.69901,-21.09185 -6.11367,0 -58.90633,20.18112 -213.7296,81.70276 -89.78447,35.67743 -93.31382,36.91334 -93.31382,32.67731 z m 184.23687,-84.18396 c 47.76999,-18.71671 95.14516,-37.00749 105.27819,-40.64613 17.42859,-6.25835 23.25701,-4.68931 107.91017,29.05032 49.21754,19.6163 97.77712,38.72405 107.91013,42.46157 10.13304,3.73761 31.0163,11.86003 46.40716,18.04989 17.54968,7.05801 26.51991,8.7574 24.05819,4.55776 -27.49909,-46.91249 -28.33967,-47.69438 -47.39756,-44.08886 -22.98734,4.34896 -37.2638,-0.11251 -44.6008,-13.93773 -4.75774,-8.96519 -3.30542,-13.3498 8.55806,-25.8375 17.66994,-18.59962 14.89409,-35.71094 -7.89007,-48.6369 -8.74247,-4.95977 -19.77381,-17.21982 -24.51413,-27.24458 l -8.61877,-18.22685 -18.47884,12.64629 c -22.71203,15.54332 -50.41038,16.3442 -73.53358,2.12622 l -17.04452,-10.4804 -19.80284,13.57195 c -19.82924,13.59006 -42.65835,15.34582 -65.86203,5.06543 -6.39276,-2.83237 -9.21186,-1.73147 -9.21186,3.59727 0,4.22324 -6.03331,10.45083 -13.40744,13.83918 -22.10879,10.15869 -43.68444,7.46113 -58.31248,-7.29078 l -13.33843,-13.45139 -10.76565,13.80222 c -5.92109,7.59121 -19.62548,19.44258 -30.45418,26.33628 -13.40393,8.53323 -29.99709,29.35498 -51.98339,65.23075 -17.76216,28.98318 -32.29482,54.17129 -32.29482,55.9737 0,1.80235 13.62037,-2.50872 30.26747,-9.58019 16.64714,-7.07143 69.35203,-28.1708 117.12202,-46.88752 z m 405.17619,-20.13488 c 36.24844,-20.54528 44.65056,-58.553 28.62804,-129.502199 -13.39048,-59.294655 -20.07497,-78.698933 -28.00601,-81.298564 -5.48724,-1.798618 -6.33047,0.175735 -3.23886,7.582489 20.05813,48.056636 21.17296,72.183595 3.64872,78.965254 -12.03882,4.6589 -24.80954,-12.796534 -34.85335,-47.638696 -7.77741,-26.979967 -15.91049,-39.138787 -22.0431,-32.954238 -1.46841,1.480904 1.10507,10.054198 5.71889,19.051906 4.61377,8.99761 10.94055,36.093834 14.05952,60.213798 3.11898,24.11991 9.14347,49.37561 13.38776,56.12377 11.02977,17.53664 28.5864,13.3104 39.94283,-9.6151 11.22807,-22.66649 12.49703,-7.56846 1.57873,18.78399 -11.3372,27.3635 -45.00917,35.56865 -84.017,20.47317 -6.24343,-2.41609 -8.35605,0.0846 -8.35605,9.88962 0,7.21778 -4.78226,19.25447 -10.6273,26.74809 l -10.62731,13.62488 14.57524,2.48224 c 25.16308,4.2855 59.66594,-1.2753 80.22925,-12.93041 z M 297.78193,182.20049 c 75.6705,-21.93515 89.19263,-47.51988 64.0563,-121.198626 -5.83388,-17.100023 -10.60702,-35.494573 -10.60702,-40.876862 0,-18.3258924 -9.13968,-9.857818 -15.98951,14.814675 -9.05908,32.62984 -36.3064,60.363809 -59.19666,60.253941 -19.87949,-0.0956 -26.35704,-3.745098 -34.56794,-19.476583 -14.73595,-28.233134 1.32692,-71.561652 42.29752,-114.094528 30.00834,-31.152704 46.40095,-33.974011 46.40095,-7.986058 0,40.526445 -27.70698,100.18556 -42.30331,91.088151 -7.1372,-4.448395 -5.9797,-24.091826 2.30828,-39.1744635 7.04812,-12.8262129 5.61611,-32.3704835 -2.37176,-32.3704835 -9.26244,0 -27.59969,34.0199932 -30.02279,55.699371 -2.14202,19.165455 -0.80273,23.825622 8.25202,28.712589 31.73176,17.126156 73.30177,-35.142646 75.39554,-94.799938 1.09947,-31.328252 -4.91351,-40.145222 -24.07119,-35.296224 -27.88198,7.057197 -102.99283,104.771404 -102.99283,133.986771 0,22.852177 11.38058,38.923468 31.4155,44.364048 34.06369,9.2501 66.99869,-7.184239 90.33507,-45.076544 l 9.80783,-15.925485 0.0215,21.635769 c 0.0263,31.329269 -20.23899,47.84259 -84.20267,68.60503 -15.92331,5.16871 -29.61583,9.94455 -30.42772,10.61299 -2.96521,2.44133 27.17935,45.12965 31.86856,45.12965 2.65911,0 18.22743,-3.88227 34.59636,-8.62719 z m 455.91062,-38.89536 c 7.59555,-8.46412 8.93445,-17.65888 7.30616,-50.176352 -1.77106,-35.369085 -3.70937,-41.619236 -17.36465,-55.992974 -24.67343,-25.97157 -55.15099,-19.346166 -37.31139,8.111037 9.48341,14.596121 21.05207,12.103205 16.96558,-3.655956 -3.25525,-12.553455 2.81768,-12.883308 13.40187,-0.728002 19.85919,22.807122 14.84649,54.412023 -8.63002,54.412023 -16.07099,0 -21.07901,-6.950788 -31.55435,-43.795045 C 691.73258,34.691787 685.91954,20.95604 683.5878,20.95604 c -7.76742,0 -11.22667,6.913043 -6.39638,12.782817 2.62369,3.188313 9.88997,26.101871 16.14734,50.91907 15.7483,62.458743 37.74866,83.837063 60.35379,58.647203 z m -299.31482,0.992 c 3.24083,-2.19277 4.72293,-12.56358 3.38558,-23.69019 -2.15725,-17.94795 -3.36598,-19.25717 -12.98543,-14.06542 -13.82362,7.46081 -28.67941,-6.674428 -33.71845,-32.082859 -3.82275,-19.275702 -4.9925,-18.897115 22.84426,-7.393828 3.49018,1.442272 12.37304,-3.455913 19.73968,-10.884941 13.47629,-13.590416 17.91286,-29.915363 8.12993,-29.915363 -2.89515,0 -5.26391,2.388828 -5.26391,5.308489 0,7.636495 -14.40179,6.553395 -17.64679,-1.327114 -1.89297,-4.597093 -5.92544,-2.966259 -13.12622,5.30849 -5.71661,6.569261 -12.69882,11.944108 -15.51601,11.944108 -2.81721,0 -6.62178,-5.374847 -8.45456,-11.944108 -3.21179,-11.511763 -3.60547,-11.584379 -10.87568,-2.006662 -6.36933,8.390925 -6.42629,11.063796 -0.36583,17.175285 6.41823,6.472615 18.61018,50.706543 18.61018,67.520153 0,20.90722 28.55065,37.34836 45.24351,26.05396 z m 96.00272,-27.71818 c 19.78209,-19.949614 25.64367,-49.853103 14.86943,-75.857851 -8.42083,-20.324603 -23.03792,-27.931466 -43.64813,-22.714828 -15.3144,3.87622 -38.63868,48.908911 -38.72136,74.760297 -0.12899,40.289622 37.86898,53.694352 67.50006,23.812382 z M 514.41241,84.657927 c -5.79032,-5.839354 -10.45249,-17.18624 -10.36041,-25.215332 0.15211,-13.271059 0.8032,-13.753716 7.16022,-5.308489 7.85806,10.439405 21.82176,12.24778 27.17124,3.518822 1.94523,-3.174039 0.90061,-8.429491 -2.32127,-11.678659 -8.27613,-8.346216 -7.2733,-19.70974 1.73935,-19.70974 10.01896,0 23.98605,20.555872 23.98605,35.301084 0,10.851762 -21.89737,33.709293 -32.29333,33.709293 -2.50475,0 -9.29155,-4.777657 -15.08185,-10.616979 z m 140.63967,30.523783 c 21.84254,-23.985236 19.71382,-60.934532 -5.04624,-87.590051 -12.7865,-13.765377 -41.19559,-16.138701 -52.82291,-4.412883 -10.72948,10.82034 -21.44175,53.370741 -17.46204,69.361385 8.4877,34.104119 52.7717,47.414089 75.33119,22.641549 z M 610.33407,76.394184 c -8.64244,-6.104688 -11.61192,-13.386183 -11.36542,-27.86956 0.27584,-16.195879 1.11455,-17.656875 4.82342,-8.40014 5.44932,13.600665 16.87847,18.736886 26.90369,12.090492 6.21775,-4.122141 5.92744,-6.070738 -1.7933,-12.038211 -10.29669,-7.95843 -12.30523,-19.220725 -3.42792,-19.220725 7.93787,0 36.32736,31.317541 36.32736,40.07406 0,8.54634 -20.1595,23.627827 -31.58346,23.627827 -4.50191,0 -13.44993,-3.718717 -19.88437,-8.263743 z M 919.73348,52.924301 975.00455,32.003706 915.78554,31.788124 c -52.99776,-0.192767 -59.21145,0.760606 -59.14713,9.074561 0.0653,8.422183 5.42487,33.316976 7.12197,33.079992 0.38637,-0.05404 25.57403,-9.512279 55.9731,-21.018589 z m -722.33363,-3.743815 5.64886,-16.897698 -49.62246,-1.682016 c -27.29231,-0.925104 -49.61713,-0.217027 -49.61061,1.573609 0.009,2.620047 85.51933,36.311503 87.4008,34.436473 0.29374,-0.293027 3.07655,-8.136628 6.18341,-17.430368 z m 340.2579,-52.3752393 c 11.6726,1.8823382 24.83791,6.7002698 29.25626,10.7065786 6.86152,6.2216207 9.84617,5.7975677 20.46029,-2.9070299 6.83488,-5.60513 15.71773,-10.1911858 19.73968,-10.1911858 4.02199,0 7.31273,-1.1712546 7.31273,-2.6028664 0,-4.9426652 -75.80061,-130.1088532 -78.69151,-129.9398232 -3.39591,0.19854 -81.08829,131.5468243 -83.48026,141.1332638 -1.00386,4.0234075 2.14673,5.5085657 8.26361,3.8954216 5.43731,-1.4339278 12.95523,1.1222744 16.70639,5.6804566 6.08398,7.39281 8.5689,6.803831 23.01514,-5.4547895 13.7245,-11.6462037 19.43213,-13.220387 37.41767,-10.3200258 z"
       style="fill:#ffffff;fill-opacity:1" />
    <path
       style="fill:none;stroke:#ffffff;stroke-width:0.2029874;stroke-opacity:0"
       d="m 139.24522,215.9014 c -4.14012,-2.75528 -18.87225,-23.41178 -18.87225,-26.46152 0,-0.68396 0.0865,-0.71692 14.91958,-5.6866 12.94777,-4.33802 16.11353,-5.44334 20.53085,-7.16833 12.89657,-5.03617 21.38286,-9.88549 26.7659,-15.29484 3.57047,-3.58792 6.02296,-7.7374 7.11638,-12.04054 0.84088,-3.30922 0.92632,-4.40725 1.03469,-13.29568 0.0928,-7.61245 0.0689,-8.68952 -0.18677,-8.42397 -0.16125,0.16746 -1.73729,2.63376 -3.5023,5.48066 -3.7763,6.09101 -4.72774,7.53194 -6.76861,10.25086 -11.06256,14.7379 -24.86921,22.66369 -39.50948,22.68065 -9.62584,0.0111 -17.51157,-2.61154 -22.71656,-7.55524 -5.1859,-4.92558 -7.8791,-11.65765 -7.91872,-19.79412 -0.0136,-2.79018 0.0515,-3.50521 0.46172,-5.07468 2.93464,-11.2269 16.42874,-32.56027 32.48433,-51.355819 11.56601,-13.53979 21.9989,-22.871676 28.45313,-25.450399 3.4569,-1.38117 8.29143,-1.654082 10.57407,-0.596913 3.19798,1.481096 4.8637,4.997712 5.54781,11.71239 0.42639,4.185107 -0.003,14.414254 -0.81963,19.511101 -2.658,16.59594 -10.04644,31.97504 -19.86683,41.35298 -7.88492,7.52968 -16.19025,10.09618 -23.41839,7.23673 -2.94324,-1.16434 -5.47017,-3.05273 -6.32365,-4.72569 -0.23065,-0.45212 -0.55876,-1.42308 -0.72913,-2.15769 -0.61646,-2.65811 -0.25,-9.90635 0.74878,-14.8105 0.4854,-2.38335 2.39207,-8.27275 3.61441,-11.16431 4.76144,-11.263643 11.18307,-19.677205 14.55289,-19.067076 1.25852,0.227862 2.36494,1.531835 3.03838,3.580858 0.50305,1.530615 0.55309,1.958896 0.55239,4.72789 -0.001,4.581681 -0.53638,6.660071 -3.11017,12.077748 -1.70843,3.59614 -2.53454,5.95878 -3.26489,9.33742 -0.64889,3.00184 -0.67347,8.21708 -0.0476,10.09136 0.97857,2.93025 2.30968,4.1717 4.44565,4.14619 2.12002,-0.0253 4.39546,-1.50378 6.82373,-4.43369 7.85189,-9.47395 14.90331,-28.250078 16.83196,-44.819184 0.14294,-1.228074 0.25936,-4.151093 0.25869,-6.495597 -0.001,-3.768287 -0.053,-4.449069 -0.44798,-5.869144 -0.98456,-3.540013 -2.68712,-5.179074 -5.39027,-5.189212 -5.17819,-0.01942 -12.93987,5.40384 -23.40007,16.350162 -11.55764,12.094761 -19.65675,23.838025 -24.27967,35.204185 -2.87367,7.06533 -3.99074,12.03125 -4.15518,18.47185 -0.11682,4.57527 0.25092,7.4402 1.40088,10.9138 1.715,5.18038 5.60142,11.01622 8.76551,13.16231 1.11247,0.75455 3.08086,1.61567 4.5828,2.00486 3.36334,0.87153 9.8437,1.17095 13.12807,0.60658 2.41467,-0.41492 3.99985,-0.94503 6.71133,-2.24437 8.65367,-4.14682 16.96225,-13.06385 22.39705,-24.03721 1.62075,-3.27245 2.61468,-5.86393 4.28189,-11.1643 2.13629,-6.79167 3.8975,-10.70852 5.70973,-12.69817 1.1324,-1.24326 1.58575,-1.41597 2.28107,-0.86904 0.72213,0.56804 1.0872,2.0476 1.31911,5.34622 0.10989,1.563 0.24554,3.02451 0.30145,3.2478 0.0559,0.22328 0.42378,1.80393 0.8175,3.51255 1.07712,4.67436 2.64598,10.05415 5.45757,18.71457 3.7226,11.4666 5.04745,16.43221 6.09519,22.84509 1.9621,12.00934 0.63192,20.66266 -4.31866,28.09444 -1.49052,2.23757 -5.26297,6.05512 -7.92244,8.01716 -7.73887,5.70939 -18.73045,10.27531 -37.12792,15.42298 -7.34099,2.05403 -16.1186,4.17312 -17.2984,4.17618 -0.0589,1.5e-4 -0.33293,-0.15003 -0.60897,-0.33374 l 0,0 z"
       id="path3203"
       inkscape:connector-curvature="0"
       transform="translate(35.396599,30.558196)" />
    <path
       style="fill:none;stroke:#ffffff;stroke-width:0.2029874;stroke-opacity:0"
       d="m 439.26619,247.16922 c -3.82228,-0.2706 -15.11142,-1.94413 -15.48236,-2.29513 -0.0863,-0.0816 1.31218,-2.01432 3.10762,-4.29491 4.03339,-5.12324 4.98771,-6.54045 6.48273,-9.62718 1.95363,-4.03362 3.04757,-8.08334 3.04941,-11.28884 0.002,-2.66862 0.6314,-4.7371 1.62037,-5.32129 0.87988,-0.51976 1.70485,-0.41374 4.57152,0.58752 11.12218,3.8847 20.79063,4.98386 29.35693,3.33746 8.28444,-1.59222 14.83727,-5.79534 18.95214,-12.15628 1.18649,-1.83412 1.98734,-3.55458 3.41444,-7.3352 2.05115,-5.43383 3.10245,-9.36643 3.32038,-12.42055 0.10337,-1.44859 0.0659,-1.85873 -0.20825,-2.27708 -0.81271,-1.24036 -2.47171,0.631 -5.35107,6.03602 -2.12725,3.99321 -3.69162,6.2271 -5.85459,8.36026 -4.29927,4.24001 -8.60553,5.35699 -12.79373,3.31848 -3.21058,-1.56268 -5.83958,-4.81006 -7.45225,-9.20512 -2.26943,-6.18492 -4.75427,-17.55635 -6.43164,-29.43317 -1.59404,-11.28684 -3.67329,-21.83481 -5.69351,-28.88297 -1.19173,-4.15771 -1.88376,-6.05401 -3.64541,-9.98912 -1.88232,-4.20463 -2.64966,-6.26949 -3.0424,-8.18685 -0.30891,-1.50808 -0.17021,-2.02957 0.67951,-2.55472 2.89834,-1.79127 6.30348,2.37614 9.99303,12.23007 0.49464,1.32108 1.7693,5.18523 2.83258,8.58701 3.85939,12.34745 6.68759,18.67261 10.63017,23.77395 3.88669,5.02904 7.77609,6.46311 11.95081,4.40642 5.79793,-2.85636 7.64978,-9.43388 5.70365,-20.25858 -1.1466,-6.37757 -3.85652,-14.77858 -8.26798,-25.63154 -2.20515,-5.42503 -2.32057,-6.57488 -0.66001,-6.57488 3.79929,0 6.43153,3.95338 9.93373,14.91957 2.12968,6.66852 4.62428,16.2008 7.62298,29.1287 4.34508,18.73234 5.7173,27.79153 5.94639,39.2571 0.21533,10.77637 -0.88817,17.94553 -3.87451,25.17192 -1.97951,4.79006 -4.52688,8.57934 -8.34441,12.41254 -3.70594,3.72116 -7.04659,6.11306 -12.041,8.62138 -7.08867,3.56009 -16.81517,6.16875 -26.86615,7.20552 -2.88178,0.29726 -11.00976,0.53166 -13.15912,0.37949 l 0,0 z"
       id="path3213"
       inkscape:connector-curvature="0"
       transform="translate(35.396599,30.558196)" />
  </g>
</svg>
