<?xml version="1.0" encoding="UTF-8" standalone="no"?>
<!-- Created with Inkscape (http://www.inkscape.org/) -->

<svg
   xmlns:dc="http://purl.org/dc/elements/1.1/"
   xmlns:cc="http://creativecommons.org/ns#"
   xmlns:rdf="http://www.w3.org/1999/02/22-rdf-syntax-ns#"
   xmlns:svg="http://www.w3.org/2000/svg"
   xmlns="http://www.w3.org/2000/svg"
   version="1.1"
   width="1000"
   height="499"
   id="svg3944">
  <defs
     id="defs3946" />
  <metadata
     id="metadata3949">
    <rdf:RDF>
      <cc:Work
         rdf:about="">
        <dc:format>image/svg+xml</dc:format>
        <dc:type
           rdf:resource="http://purl.org/dc/dcmitype/StillImage" />
        <dc:title></dc:title>
      </cc:Work>
    </rdf:RDF>
  </metadata>
  <g
     transform="translate(-35.396599,164.8432)"
     id="layer1">
    <path
       d="m 535.2694,-164.8432 c 0,0 -70.08429,116.134127 -103.38337,172.6061967 -6.4281,2.4088603 -7.14247,1.73215 -14.19486,8.6380303 -17.0619,-19.5616103 -37.36994,-1.7231 -42.83897,9.2036 C 372.47507,1.9707367 368.54798,1.9596267 363.2521,-3.3430333 366.31133,-24.016473 376.40683,-57.706575 353.17832,-81.856483 308.2561,-112.15896 256.27913,-38.080203 227.30704,0.71889667 L 211.68761,26.632967 c -64.41236,-1.31627 -115.141479,0.36378 -176.291011,-0.87409 74.565591,27.94511 77.655211,28.59645 167.743571,62.77992 0,2.7554 6.73603,15.496863 14.14398,22.983313 6.15699,6.22224 12.87199,9.7366 16.22997,11.82587 -4.40832,2.25628 -13.36407,5.77744 -16.02646,10.74611 -12.18833,22.74645 5.76755,27.99967 17.40015,46.12087 13.11826,23.69061 15.94177,39.36548 46.90919,26.06832 10.6135,-4.55735 23.41683,-6.19404 31.59501,-8.74085 -28.85417,45.54568 -36.27108,57.99099 -86.79725,136.40879 l 0.50877,0.15416 c 202.09001,-78.8838 207.26341,-80.9127 307.19919,-120.41816 143.6739,55.7507 151.917,60.3364 309.69219,120.46958 -22.03838,-34.3997 -37.09678,-55.9613 -53.11625,-83.14098 6.30949,-0.50992 20.1357,-1.90003 32.41063,-9.70169 8.85894,-5.63055 19.26354,-11.9767 28.64254,-23.9249 18.45056,-23.50474 22.97538,-53.18375 16.22996,-90.23649 -3.20752,-17.61905 -9.77721,-34.746133 -8.85271,-35.374763 85.87954,-32.43645 95.9848,-35.95678 176.08752,-66.17343 -96.25527,1.41063 -100.90223,0.46404 -191.29993,0.66842 C 842.62498,9.0340067 833.95777,0.16857667 807.36301,1.0273167 797.41843,2.6563967 791.16264,6.0539367 786.50318,19.588787 771.63716,-7.8190533 751.0984,0.24436667 742.39227,13.727267 730.90958,1.9977867 704.15574,-1.9500033 690.70059,6.6317467 680.78438,1.9906567 669.25949,1.9720567 659.15645,14.035767 651.83897,7.9290767 649.58932,6.2059167 633.565,-0.20668333 596.66041,-62.601163 565.9659,-112.36779 535.2694,-164.8432 z m 0.50877,33.42092 c 14.574,22.26603 64.64344,108.722277 77.02875,128.0792467 C 598.76353,-2.396198 584.96251,5.0622677 574.54693,20.051617 565.52614,10.749593 554.98061,1.5250074 536.3486,0.78926085 513.69764,-3.1042287 501.61959,6.945404 486.37598,24.422047 481.84773,9.2462513 464.29824,5.6575459 449.0318,12.801847 462.6397,-8.8452233 527.00887,-117.28988 535.77817,-131.42228 z m -190.02798,96.406497 c -2.09294,59.75931 -44.49802,112.97903 -74.89189,93.52717 -22.96574,-18.69278 6.20436,-65.9927403 24.5739,-82.67822 -1.36272,12.75271 10.23546,20.7177297 0.96668,32.0326697 -18.56681,22.6655903 -11.26099,39.0155303 -3.25617,41.5447703 21.36735,6.75135 41.82142,-51.1318303 41.82142,-91.72757 0,-26.03238 -15.23389,-25.55012 -45.23022,5.65584 -40.95422,42.6056097 -63.06382,83.85864 -48.33376,112.14006 8.20761,15.75838 20.20513,27.093703 39.93895,24.731483 38.53801,-4.613169 61.79707,-52.272283 64.30933,-82.832483 6.14604,-0.15383 4.5204,0.37009 6.1562,-0.87408 0,5.39149 7.39663,31.45961 13.22818,48.58888 7.63176,29.24323 40.17312,87.916423 -57.03383,110.751793 -18.38731,4.63331 -25.61398,6.17496 -43.75477,13.31696 -8.89367,-18.4206 -10.9835,-24.36579 -29.05113,-42.16178 24.51346,-8.55813 24.68821,-7.71321 40.4986,-13.21412 61.13387,-21.27027 79.51442,-39.451033 77.38489,-65.402183 0,0 0.74581,-13.37447 -7.7334,-24.52581 -4.2797,14.93065 -12.21064,26.89099 -12.21064,26.89099 -18.17891,28.333144 -53.97424,45.875653 -85.7797,34.706343 -17.39351,-6.108185 -24.87916,-19.424773 -24.87916,-42.316033 0,-29.26533 66.72325,-113.959533 99.46578,-128.33633 23.13028,-6.88233 24.12398,12.203706 23.81074,30.18165 z m 270.92343,54.19331 c 10.82124,0.20172 22.63996,5.52156 30.62834,14.13962 24.75016,26.7011 22.05022,59.04154 6.8176,79.387553 -18.12144,24.20455 -63.83983,13.4674 -74.63749,-20.361053 -5.0168,-15.71732 3.94377,-54.65478 19.7914,-67.66452 4.78429,-3.92754 10.90741,-5.62263 17.40015,-5.5016 z m -88.01832,2.72509 c 1.5996,0.0385 3.23362,0.2796 4.88426,0.71984 20.93957,1.26543 25.38896,13.00621 29.20376,23.34323 9.61324,26.04922 7.2074,50.457293 -12.56677,70.441023 -29.61924,29.93307 -64.13302,16.70679 -64.00408,-23.651733 0.61145,-28.7005 18.48897,-71.43043 42.48283,-70.85236 z m 77.84279,1.59392 c -15.96846,11.9459 -18.03722,42.61099 -3.35792,53.98765 5.77091,5.38776 8.97792,9.14035 25.54057,10.64328 11.37364,1.03207 29.32526,-10.50351 30.22132,-21.95498 0.40525,-5.17888 -0.52694,-13.85674 -13.02467,-27.91932 -10.46813,-11.77891 -24.09992,-14.518 -27.52481,-12.49429 -11.02187,6.51268 0.88457,11.69202 5.18952,15.99063 6.76723,6.75727 8.38973,9.71258 5.2404,11.72303 -6.2636,3.99857 -13.22593,3.42734 -15.51768,2.36517 -4.35707,-2.01937 -18.97459,-10.24517 -6.76673,-32.34117 z m 156.60138,0.10284 c 6.95636,10.838 8.96444,13.18184 16.73874,40.20794 10.03979,34.901745 22.78604,48.466303 34.03714,42.110363 30.83727,-17.420523 6.12661,-61.530613 -4.73162,-82.266883 6.95809,-0.0984 5.58036,0.28892 11.90537,0.20566 5.00874,19.62551 3.608,16.13524 16.99313,75.53129 16.0161,71.070523 18.41027,89.993063 -22.03002,121.909243 -18.58369,14.66657 -45.95753,15.43934 -69.44798,14.13962 l -26.50725,-3.90768 c 18.26576,-11.98044 22.70201,-23.20105 22.58968,-46.5322 53.24702,22.32422 81.62079,5.50673 92.95344,-21.90356 5.45697,-13.19877 3.56421,-30.61507 -1.67896,-61.28883 0.32863,24.9949 -0.21214,29.60153 -3.51056,41.95611 -6.61695,24.78449 -22.80827,31.70625 -33.83363,14.13962 -4.24259,-6.75969 -14.38417,-29.20948 -17.5019,-53.37064 -3.11772,-24.161213 -5.50729,-58.153723 -20.85984,-72.343453 1.67908,-3.34113 3.41642,-7.10317 4.88426,-8.5866 z m -51.94607,0.41133 c 10.74736,2.85598 23.82289,8.52721 30.85661,21.68335 9.71551,18.17221 16.14983,27.84463 15.62033,60.294373 -0.56527,34.64255 -14.1841,43.93582 -23.17498,45.22746 -11.61336,1.66837 -31.7463,1.42928 -43.7039,-66.584763 -3.96118,-22.53091 -11.19399,-43.9709 -18.77385,-51.00548 3.76415,-4.54387 4.06137,-3.975 6.86849,-8.48377 3.81797,4.17478 7.11476,11.23213 12.41414,32.39259 8.43235,33.67037 16.13233,40.620527 31.03536,42.521693 23.28236,2.97012 32.43743,-32.526513 13.27906,-57.998153 -4.20516,-5.59089 -15.20079,-12.78577 -20.98027,-9.81447 0.33439,9.81798 4.72696,6.7343 4.77597,13.23301 -1.09709,7.72607 -2.21513,9.10835 -4.70641,13.34334 -5.91639,-2.32514 -8.78887,-3.24436 -13.95353,-12.13437 -6.52787,-12.90125 -2.28586,-25.01138 10.44298,-22.67481 z m -191.55432,3.18784 c -10.95551,7.71708 -24.72389,33.31716 -12.66853,56.24999 5.95324,8.52117 12.3732,15.500135 26.60901,12.494284 10.17214,-2.147824 27.94621,-14.160994 30.42483,-31.210004 2.12452,-14.61354 -19.00784,-42.82644 -30.78098,-36.24885 -13.62907,7.6145 -5.31656,13.07763 3.10354,21.28656 7.69871,7.50564 2.17071,12.03053 -3.20529,14.24246 -10.76144,4.42772 -16.79068,0.1178 -19.48614,-8.43236 -2.69544,-8.55018 -0.36879,-15.83297 6.00356,-28.38208 z m -119.46069,2.67368 c 2.34016,7.16684 4.21366,16.71192 9.10709,25.96548 1.15166,0.95711 5.47874,0.0505 11.19308,-6.52993 3.59895,-4.14446 7.68806,-9.91059 14.85627,-19.2813 4.36399,3.9724 4.74431,6.92722 5.95269,9.10077 3.01002,5.41428 9.35938,4.98656 11.34571,4.42185 7.01055,-6.93941 8.12367,-11.44112 12.77029,-12.03153 0.43162,8.97415 0.86624,14.56275 -10.73518,28.1764 -6.79577,7.97448 -17.21806,8.164648 -20.85983,7.14694 -5.01901,-1.402585 -8.27218,-4.496024 -16.18705,-8.529754 -10.7567,1.649919 -7.90622,13.117879 -5.99561,22.772214 5.03698,25.451933 20.88046,35.598553 34.69855,28.124993 4.8078,-2.60033 3.70798,-2.58471 12.9738,-6.37569 -1.55158,16.15299 -2.48089,19.28201 0.40702,37.3286 -22.53954,12.54495 -40.88385,10.37629 -45.89163,-21.08089 -3.80053,-26.360873 -10.88273,-58.352903 -17.29839,-64.836593 -6.05804,-6.12194 -8.54745,-8.12385 -8.54745,-8.12385 0,0 7.58937,-10.07268 12.21064,-16.24771 z m -296.41313,3.39351 c 31.37174,0.39121 66.74576,0.39802 104.40091,0.71983 -5.40726,13.23712 -7.26249,22.50641 -8.03866,35.58043 -17.57855,-6.80531 -78.17637,-28.49901 -96.36225,-36.30026 z m 863.44442,0.41133 c -41.53727,14.97073 -71.44761,26.55704 -111.52379,41.85328 -4.38379,-18.77362 -5.18602,-24.50354 -9.10709,-41.44194 66.69298,-0.19512 67.81873,-0.093 120.63088,-0.41134 z M 676.45485,118.72046 c 4.36141,17.91207 10.51208,26.69056 10.51208,26.69056 8.41675,14.47977 18.93827,22.69893 35.01359,26.84064 3.53863,5.67134 4.78595,6.7896 6.18626,9.83973 1.53184,19.05472 0.42761,21.42153 -14.37313,32.26433 -8.68812,8.50703 -9.05854,20.69052 -0.0964,32.03267 9.63539,9.13361 19.76096,12.42877 57.28822,2.67367 7.25421,12.46712 17.39483,27.20062 32.3073,50.69698 -50.22842,-18.92757 -119.49557,-45.95037 -267.92165,-103.7077 0,0 -173.68384,67.43138 -266.80234,103.75912 38.94593,-61.43401 42.15913,-66.60904 69.855,-109.62064 9.37539,-3.65164 6.21591,-2.15318 14.551,-6.4271 19.12967,-10.18566 34.47824,-25.37398 42.83898,-47.71479 15.32853,34.56596 32.45023,38.53814 68.17603,27.30232 7.37119,-3.39413 15.8369,-8.34706 17.65454,-21.59506 19.14227,17.23743 59.66642,20.4245 89.23938,-15.88779 25.49868,29.83981 83.39187,32.67982 105.57111,-7.14694 z m 89.84991,35.99177 c 0,0 1.70301,5.38083 2.69651,7.0441 -4.23207,0.14101 -8.90358,0.0513 -8.90358,0.0513 2.11939,-1.74264 3.82601,-3.86946 6.20707,-7.09552 z"
       id="path4019"
       style="fill:#ffffff;fill-opacity:1" />
  </g>
</svg>
